#!OML:ASF F:\VICON\USERDATA\INSTALL\rory3\rory3.ASF
:FULLY-SPECIFIED
:DEGREES
2569
root 0.41143 16.2629 -1.03789 17.7087 -1.50656 0.911305
lowerback 22.8939 0.0983366 -0.684237
upperback 0.238988 -0.216524 -1.25422
thorax -12.625 -0.107425 -0.948659
lowerneck -4.48383 -7.09296 -11.4709
upperneck -7.02655 -8.55268 18.0854
head 0.0734796 -4.24824 7.19675
rclavicle 2.68359e-015 1.37161e-014
rhumerus 44.3031 -35.9403 -3.39625
rradius 107.892
rwrist -39.5918
rhand -5.94185 18.5351
rfingers 7.12502
rthumb 19.8883 -10.4673
lclavicle 2.68359e-015 1.37161e-014
lhumerus -47.2985 22.9172 50.7727
lradius 17.3703
lwrist -6.43262
lhand -10.9459 11.8566
lfingers 7.12502
lthumb 15.0726 41.2879
rfemur -28.2831 3.18347 12.7093
rtibia 22.1384
rfoot -9.23086 -7.141
rtoes 1.58702
lfemur -23.6535 -0.379783 -17.0862
ltibia 13.4135
lfoot -3.83378 1.7471
ltoes -1.15841
2570
root 0.408884 16.2396 -1.04284 17.4592 -1.47785 0.906366
lowerback 22.8197 0.0914949 -0.670845
upperback 0.281939 -0.213022 -1.19944
thorax -12.5334 -0.104298 -0.894847
lowerneck -4.48618 -7.05858 -11.5819
upperneck -6.7664 -8.53237 17.9671
head 0.14282 -4.22745 7.1727
rclavicle -5.96354e-016 -1.78906e-015
rhumerus 44.6074 -35.7939 -3.54338
rradius 107.928
rwrist -39.7166
rhand -5.66609 18.6527
rfingers 7.12502
rthumb 20.1533 -10.3219
lclavicle -5.96354e-016 -1.78906e-015
lhumerus -47.3273 23.325 50.3863
lradius 17.1226
lwrist -6.94913
lhand -10.9083 11.71
lfingers 7.12502
lthumb 15.1088 41.1385
rfemur -28.4932 3.24248 12.7059
rtibia 22.9751
rfoot -9.45739 -6.95099
rtoes 0.765418
lfemur -24.2481 -0.109636 -17.1681
ltibia 14.9423
lfoot -4.2193 1.20496
ltoes -1.28655
2571
root 0.405229 16.2175 -1.04803 17.187 -1.4703 0.844946
lowerback 22.8045 0.0974243 -0.625612
upperback 0.295535 -0.185665 -1.14327
thorax -12.5087 -0.0922873 -0.86633
lowerneck -4.53585 -7.02915 -11.6168
upperneck -6.42206 -8.52709 17.775
head 0.238383 -4.21138 7.10819
rclavicle -1.39149e-015 1.05356e-014
rhumerus 44.9415 -35.4803 -3.73121
rradius 107.803
rwrist -39.619
rhand -5.62143 18.6778
rfingers 7.12502
rthumb 20.1962 -10.2923
lclavicle -1.39149e-015 1.05356e-014
lhumerus -47.3683 23.6186 50.035
lradius 16.9457
lwrist -7.24643
lhand -10.9147 11.5978
lfingers 7.12502
lthumb 15.1027 41.0268
rfemur -28.6926 3.57912 12.707
rtibia 23.7988
rfoot -9.66396 -7.05332
rtoes -0.288561
lfemur -24.777 -0.257896 -17.0468
ltibia 16.4373
lfoot -4.68424 0.941465
ltoes -1.10686
2572
root 0.401691 16.1971 -1.05368 16.8579 -1.5131 0.831614
lowerback 22.818 0.132827 -0.631345
upperback 0.313735 -0.137808 -1.12088
thorax -12.4947 -0.0690883 -0.853511
lowerneck -4.49592 -6.99293 -11.5755
upperneck -6.11902 -8.518 17.5334
head 0.300423 -4.19985 7.01997
rclavicle 3.77691e-015 -4.77083e-015
rhumerus 45.1477 -35.0893 -3.78667
rradius 107.726
rwrist -39.3852
rhand -5.91804 18.3142
rfingers 7.12502
rthumb 19.9111 -10.6858
lclavicle 3.77691e-015 -4.77083e-015
lhumerus -47.3745 23.6785 49.8412
lradius 16.8982
lwrist -7.22656
lhand -11.0141 11.5817
lfingers 7.12502
lthumb 15.0069 41.0178
rfemur -28.8472 4.14676 12.5995
rtibia 24.6435
rfoot -9.80853 -7.37609
rtoes -1.84567
lfemur -25.2302 -0.724053 -16.8953
ltibia 17.9379
lfoot -5.25259 0.893086
ltoes -1.47419
2573
root 0.399445 16.1714 -1.06003 16.4273 -1.55651 0.733383
lowerback 22.8979 0.140333 -0.532258
upperback 0.370943 -0.099166 -1.09668
thorax -12.4731 -0.0564683 -0.895847
lowerneck -4.42843 -6.9098 -11.4574
upperneck -5.81697 -8.44932 17.254
head 0.343608 -4.16129 6.91184
rclavicle -3.77691e-015 3.77691e-015
rhumerus 45.3913 -34.6792 -3.96319
rradius 107.732
rwrist -39.3125
rhand -6.15896 18.1619
rfingers 7.12502
rthumb 19.6795 -10.862
lclavicle -3.77691e-015 3.77691e-015
lhumerus -47.3566 23.5868 49.7858
lradius 16.9238
lwrist -6.99223
lhand -11.1898 11.7104
lfingers 7.12502
lthumb 14.8376 41.1592
rfemur -28.9417 5.01058 12.5143
rtibia 25.595
rfoot -10.081 -7.89209
rtoes -3.22438
lfemur -25.5561 -1.42359 -16.6006
ltibia 19.406
lfoot -5.93018 1.01262
ltoes -2.5291
